<svg width="63" height="13" viewBox="0 0 63 13" fill="none" xmlns="http://www.w3.org/2000/svg">
<path d="M3.29297 12.1094C1.88672 11.7148 1.18359 10.8066 1.18359 9.38477V8.22461C1.18359 7.43555 0.867188 7.04102 0.234375 7.04102V5.71094C0.867188 5.71094 1.18359 5.31445 1.18359 4.52148V3.29102C1.19531 2.58789 1.37695 2.01953 1.72852 1.58594C2.08398 1.15234 2.60547 0.837891 3.29297 0.642578L3.66211 1.67383C3.16992 1.86133 2.91406 2.38672 2.89453 3.25V4.52148C2.89453 5.39648 2.5332 6.01367 1.81055 6.37305C2.5332 6.73242 2.89453 7.35156 2.89453 8.23047V9.49609C2.91406 10.3594 3.16992 10.8848 3.66211 11.0723L3.29297 12.1094ZM4.54688 10V1.46875H7.29492C8.04883 1.46875 8.72656 1.64062 9.32812 1.98438C9.92969 2.32422 10.3984 2.80664 10.7344 3.43164C11.0742 4.05273 11.2461 4.75 11.25 5.52344V5.91602C11.25 6.69727 11.084 7.39844 10.752 8.01953C10.4238 8.63672 9.95898 9.12109 9.35742 9.47266C8.75977 9.82031 8.0918 9.99609 7.35352 10H4.54688ZM6.60352 3.05664V8.41797H7.31836C7.9082 8.41797 8.36133 8.20898 8.67773 7.79102C8.99414 7.36914 9.15234 6.74414 9.15234 5.91602V5.54688C9.15234 4.72266 8.99414 4.10156 8.67773 3.68359C8.36133 3.26562 7.90039 3.05664 7.29492 3.05664H6.60352ZM15.7852 10C15.7148 9.87109 15.6523 9.68164 15.5977 9.43164C15.2344 9.88867 14.7266 10.1172 14.0742 10.1172C13.4766 10.1172 12.9688 9.9375 12.5508 9.57812C12.1328 9.21484 11.9238 8.75977 11.9238 8.21289C11.9238 7.52539 12.1777 7.00586 12.6855 6.6543C13.1934 6.30273 13.9316 6.12695 14.9004 6.12695H15.5098V5.79297C15.5098 5.21094 15.2578 4.91992 14.7539 4.91992C14.2852 4.91992 14.0508 5.15039 14.0508 5.61133H12.0762C12.0762 4.99805 12.3359 4.5 12.8555 4.11719C13.3789 3.73438 14.0449 3.54297 14.8535 3.54297C15.6621 3.54297 16.3008 3.74023 16.7695 4.13477C17.2383 4.5293 17.4785 5.07031 17.4902 5.75781V8.56445C17.498 9.14648 17.5879 9.5918 17.7598 9.90039V10H15.7852ZM14.5488 8.71094C14.7949 8.71094 14.998 8.6582 15.1582 8.55273C15.3223 8.44727 15.4395 8.32812 15.5098 8.19531V7.18164H14.9355C14.248 7.18164 13.9043 7.49023 13.9043 8.10742C13.9043 8.28711 13.9648 8.43359 14.0859 8.54688C14.207 8.65625 14.3613 8.71094 14.5488 8.71094ZM20.6719 10H18.6914V3.66016H20.6719V10ZM18.5742 2.02539C18.5742 1.74414 18.6758 1.51367 18.8789 1.33398C19.082 1.1543 19.3457 1.06445 19.6699 1.06445C19.9941 1.06445 20.2578 1.1543 20.4609 1.33398C20.6641 1.51367 20.7656 1.74414 20.7656 2.02539C20.7656 2.30664 20.6641 2.53711 20.4609 2.7168C20.2578 2.89648 19.9941 2.98633 19.6699 2.98633C19.3457 2.98633 19.082 2.89648 18.8789 2.7168C18.6758 2.53711 18.5742 2.30664 18.5742 2.02539ZM23.9766 10H21.9961V1H23.9766V10ZM27.7324 7.23438L28.7871 3.66016H30.9023L28.3184 11.0605L28.207 11.3301C27.8398 12.1504 27.1914 12.5605 26.2617 12.5605C26.0039 12.5605 25.7324 12.5215 25.4473 12.4434V11.0312H25.7051C25.9824 11.0312 26.1934 10.9902 26.3379 10.9082C26.4863 10.8301 26.5957 10.6875 26.666 10.4805L26.8242 10.0586L24.6211 3.66016H26.7305L27.7324 7.23438ZM38.4141 7.11133C38.3867 7.70508 38.2266 8.23047 37.9336 8.6875C37.6406 9.14062 37.2285 9.49219 36.6973 9.74219C36.1699 9.99219 35.5664 10.1172 34.8867 10.1172C33.7656 10.1172 32.8828 9.75195 32.2383 9.02148C31.5938 8.29102 31.2715 7.25977 31.2715 5.92773V5.50586C31.2715 4.66992 31.416 3.93945 31.7051 3.31445C31.998 2.68555 32.418 2.20117 32.9648 1.86133C33.5117 1.51758 34.1445 1.3457 34.8633 1.3457C35.8984 1.3457 36.7305 1.61914 37.3594 2.16602C37.9883 2.70898 38.3457 3.45898 38.4316 4.41602H36.3809C36.3652 3.89648 36.2344 3.52344 35.9883 3.29688C35.7422 3.07031 35.3672 2.95703 34.8633 2.95703C34.3516 2.95703 33.9766 3.14844 33.7383 3.53125C33.5 3.91406 33.375 4.52539 33.3633 5.36523V5.96875C33.3633 6.87891 33.4766 7.5293 33.7031 7.91992C33.9336 8.31055 34.3281 8.50586 34.8867 8.50586C35.3594 8.50586 35.7207 8.39453 35.9707 8.17188C36.2207 7.94922 36.3535 7.5957 36.3691 7.11133H38.4141ZM39.0469 6.77148C39.0469 6.13867 39.1699 5.57617 39.416 5.08398C39.6621 4.58789 40.0156 4.20703 40.4766 3.94141C40.9375 3.67578 41.4785 3.54297 42.0996 3.54297C43.0488 3.54297 43.7969 3.83789 44.3438 4.42773C44.8906 5.01367 45.1641 5.8125 45.1641 6.82422V6.89453C45.1641 7.88281 44.8887 8.66797 44.3379 9.25C43.791 9.82812 43.0488 10.1172 42.1113 10.1172C41.209 10.1172 40.4844 9.84766 39.9375 9.30859C39.3906 8.76562 39.0957 8.03125 39.0527 7.10547L39.0469 6.77148ZM41.0215 6.89453C41.0215 7.48047 41.1133 7.91016 41.2969 8.18359C41.4805 8.45703 41.752 8.59375 42.1113 8.59375C42.8145 8.59375 43.1738 8.05273 43.1895 6.9707V6.77148C43.1895 5.63477 42.8262 5.06641 42.0996 5.06641C41.4395 5.06641 41.082 5.55664 41.0273 6.53711L41.0215 6.89453ZM45.7852 6.7832C45.7852 5.7793 46.002 4.98828 46.4355 4.41016C46.8691 3.83203 47.4746 3.54297 48.252 3.54297C48.8184 3.54297 49.2949 3.76562 49.6816 4.21094V1H51.6621V10H49.8867L49.7871 9.32031C49.3809 9.85156 48.8652 10.1172 48.2402 10.1172C47.4863 10.1172 46.8887 9.82812 46.4473 9.25C46.0059 8.67188 45.7852 7.84961 45.7852 6.7832ZM47.7598 6.90625C47.7598 8.03125 48.0879 8.59375 48.7441 8.59375C49.1816 8.59375 49.4941 8.41016 49.6816 8.04297V5.62891C49.502 5.25391 49.1934 5.06641 48.7559 5.06641C48.1465 5.06641 47.8164 5.55859 47.7656 6.54297L47.7598 6.90625ZM55.8516 10.1172C54.8789 10.1172 54.0918 9.82812 53.4902 9.25C52.8887 8.66797 52.5879 7.91211 52.5879 6.98242V6.81836C52.5879 6.16992 52.707 5.59766 52.9453 5.10156C53.1875 4.60547 53.5391 4.22266 54 3.95312C54.4609 3.67969 55.0078 3.54297 55.6406 3.54297C56.5312 3.54297 57.2344 3.82031 57.75 4.375C58.2656 4.92578 58.5234 5.69531 58.5234 6.68359V7.45117H54.5977C54.668 7.80664 54.8223 8.08594 55.0605 8.28906C55.2988 8.49219 55.6074 8.59375 55.9863 8.59375C56.6113 8.59375 57.0996 8.375 57.4512 7.9375L58.3535 9.00391C58.1074 9.34375 57.7578 9.61523 57.3047 9.81836C56.8555 10.0176 56.3711 10.1172 55.8516 10.1172ZM55.6289 5.06641C55.0508 5.06641 54.707 5.44922 54.5977 6.21484H56.5898V6.0625C56.5977 5.74609 56.5176 5.50195 56.3496 5.33008C56.1816 5.1543 55.9414 5.06641 55.6289 5.06641ZM59.0098 11.0723C59.502 10.8848 59.7578 10.3594 59.7773 9.49609V8.22461C59.7773 7.3457 60.1406 6.72852 60.8672 6.37305C60.1406 6.01758 59.7773 5.40039 59.7773 4.52148V3.25C59.7578 2.38672 59.502 1.86133 59.0098 1.67383L59.3789 0.642578C60.0781 0.837891 60.6035 1.1582 60.9551 1.60352C61.3066 2.04492 61.4844 2.625 61.4883 3.34375V4.52148C61.4883 5.31445 61.8047 5.71094 62.4375 5.71094V7.04102C61.8047 7.04102 61.4883 7.43359 61.4883 8.21875V9.4668C61.4609 10.8418 60.7578 11.7227 59.3789 12.1094L59.0098 11.0723Z" fill="black"/>
</svg>
