<svg width="588" height="447" viewBox="0 0 588 447" fill="none" xmlns="http://www.w3.org/2000/svg">
<g clip-path="url(#clip0)">
<path d="M505.305 178.189C479.462 76.4651 390.163 3.03486 285.345 0.0896382C229.931 -1.46741 171.62 16.9289 129.165 81.3043C53.2731 196.382 133.829 275.905 189.991 313.692C217.124 331.985 241.572 353.98 262.627 379.042C300.562 424.102 373.541 480.096 460.456 392.362C523.452 328.772 522.52 245.947 505.305 178.189Z" fill="#F2F2F2"/>
<path opacity="0.1" d="M388.901 274.485L442.081 221.416L388.901 168.347L405.115 152.172L474.507 221.416L405.115 290.66L388.901 274.485Z" fill="black"/>
<path opacity="0.1" d="M237.037 225.202H258.655V203.564H237.037V225.202ZM345.558 203.564H323.94V225.202H345.558V203.564ZM280.489 225.202H302.107V203.564H280.489V225.202Z" fill="black"/>
<path opacity="0.1" d="M207.746 273.944L154.512 220.875L207.692 167.806L191.478 151.631L122.14 220.875L191.532 290.119L207.746 273.944Z" fill="black"/>
<path d="M588 406.968C588 415.931 456.372 447 294 447C131.628 447 0 415.931 0 406.968C0 398.005 131.628 414.542 294 414.542C456.372 414.542 588 398.005 588 406.968Z" fill="#3F3D56"/>
<path opacity="0.1" d="M588 406.968C588 415.931 456.372 447 294 447C131.628 447 0 415.931 0 406.968C0 398.005 131.628 414.542 294 414.542C456.372 414.542 588 398.005 588 406.968Z" fill="black"/>
<path d="M294 423.197C456.372 423.197 588 415.931 588 406.968C588 398.005 456.372 390.739 294 390.739C131.628 390.739 0 398.005 0 406.968C0 415.931 131.628 423.197 294 423.197Z" fill="#3F3D56"/>
<path d="M341.935 328.884C341.935 363.515 363.639 391.538 390.462 391.538Z" fill="#3F3D56"/>
<path d="M390.462 391.538C390.462 356.518 414.682 328.18 444.615 328.18Z" fill="#E45151"/>
<path d="M359.517 332.024C359.517 364.919 373.357 391.538 390.462 391.538Z" fill="#E45151"/>
<path d="M390.462 391.538C390.462 346.79 418.457 310.581 453.054 310.581Z" fill="#3F3D56"/>
<path d="M380.253 391.98C380.253 391.98 387.135 391.767 389.209 390.289C391.283 388.811 399.795 387.046 400.309 389.417C400.824 391.787 410.652 401.208 402.882 401.271C395.112 401.334 384.829 400.06 382.759 398.798C380.689 397.535 380.253 391.98 380.253 391.98Z" fill="#A8A8A8"/>
<path opacity="0.2" d="M403.021 400.446C395.251 400.509 384.968 399.234 382.898 397.972C381.321 397.011 380.693 393.562 380.483 391.971C380.337 391.977 380.253 391.98 380.253 391.98C380.253 391.98 380.689 397.535 382.759 398.798C384.829 400.06 395.112 401.334 402.882 401.271C405.125 401.253 405.899 400.454 405.857 399.271C405.545 399.986 404.69 400.432 403.021 400.446Z" fill="black"/>
<path d="M467.77 207.112C467.77 207.112 451.13 194.466 449.867 199.101C448.604 203.737 462.076 214.272 462.076 214.272L467.77 207.112Z" fill="#FFB9B9"/>
<path opacity="0.1" d="M467.77 207.112C467.77 207.112 451.13 194.466 449.867 199.101C448.604 203.737 462.076 214.272 462.076 214.272L467.77 207.112Z" fill="black"/>
<path d="M522.7 167.074C522.7 167.074 502.913 202.473 502.492 207.53C502.071 212.587 502.071 213.008 500.387 212.587C498.703 212.165 475.548 209.637 473.443 210.48C471.338 211.322 467.128 205.423 467.128 205.423C467.128 205.423 459.129 213.429 460.813 215.115C462.497 216.801 467.549 217.643 468.391 219.751C469.233 221.858 470.496 223.965 474.285 223.543C478.074 223.122 503.755 230.286 507.123 229.022C510.491 227.757 511.333 225.65 513.017 225.65C514.701 225.65 518.069 223.965 518.069 223.543C518.069 223.122 529.857 200.787 529.857 200.787C529.857 200.787 543.75 170.446 522.7 167.074Z" fill="#D0CDE1"/>
<path opacity="0.1" d="M522.7 167.074C522.7 167.074 502.913 202.473 502.492 207.53C502.071 212.587 502.071 213.008 500.387 212.587C498.703 212.165 475.548 209.637 473.443 210.48C471.338 211.322 467.128 205.423 467.128 205.423C467.128 205.423 459.129 213.429 460.813 215.115C462.497 216.801 467.549 217.643 468.391 219.751C469.233 221.858 470.496 223.965 474.285 223.543C478.074 223.122 503.755 230.286 507.123 229.022C510.491 227.757 511.333 225.65 513.017 225.65C514.701 225.65 518.069 223.965 518.069 223.543C518.069 223.122 529.857 200.787 529.857 200.787C529.857 200.787 543.75 170.446 522.7 167.074Z" fill="black"/>
<path d="M493.992 143.738C493.813 145.976 493.849 148.226 494.1 150.457C494.74 155.298 496.966 160.345 494.863 164.864C494.099 166.505 492.806 167.934 492.102 169.594C490.61 173.109 491.962 177.006 491.76 180.747C491.498 185.579 488.428 190.234 483.758 192.882C491.736 193.13 499.324 189.181 504.345 183.801C509.365 178.42 512.161 171.745 514.257 165.068C515.334 161.932 516.025 158.676 516.313 155.372C516.48 153.475 516.258 151.563 515.66 149.754C514.923 147.987 513.952 146.327 512.773 144.819C511.516 143.049 510.224 141.245 508.37 139.929C506.085 138.308 501.68 136.68 498.65 136.916C494.932 137.205 494.149 141.155 493.992 143.738Z" fill="#2F2E41"/>
<path d="M506.281 156.96C506.281 156.96 510.912 173.395 507.123 178.031C503.334 182.666 529.857 175.924 529.857 175.924C529.857 175.924 516.806 162.86 523.121 154.432L506.281 156.96Z" fill="#FFB9B9"/>
<path opacity="0.1" d="M506.281 156.96C506.281 156.96 510.912 173.395 507.123 178.031C503.334 182.666 529.857 175.924 529.857 175.924C529.857 175.924 516.806 162.86 523.121 154.432L506.281 156.96Z" fill="black"/>
<path d="M388.901 264.206L442.081 211.137L388.901 158.068L405.115 141.893L474.507 211.137L405.115 280.381L388.901 264.206Z" fill="#E45151"/>
<path d="M491.125 376.094V388.315L497.44 395.9L502.913 393.371L501.229 375.672L491.125 376.094Z" fill="#FFB9B9"/>
<path d="M493.651 387.472C493.651 387.472 491.967 381.572 489.02 385.786C486.073 390 483.126 399.271 481.442 399.693C479.758 400.114 467.97 413.178 479.758 413.178C491.546 413.178 495.335 407.699 495.335 407.699C495.335 407.699 507.123 403.064 507.123 402.221C507.123 401.378 505.439 385.786 504.597 385.786C503.755 385.786 503.334 388.736 501.229 388.736C499.124 388.736 493.651 387.472 493.651 387.472Z" fill="#2F2E41"/>
<path d="M519.332 378.201L518.911 389.579L529.015 393.793V377.358L519.332 378.201Z" fill="#FFB9B9"/>
<path d="M530.278 389.579C530.278 389.579 524.805 383.679 521.858 384.943C520.4 385.53 518.992 386.235 517.648 387.05C517.648 387.05 515.964 392.529 515.122 397.164C514.28 401.8 513.859 403.907 513.017 405.592C512.175 407.278 511.333 413.599 519.753 414.442C528.173 415.285 530.699 410.649 530.699 410.649L532.804 399.693C532.804 399.693 531.962 389.579 530.278 389.579Z" fill="#2F2E41"/>
<path d="M496.598 256.835C496.598 256.835 484.389 284.226 486.073 309.089C486.073 309.089 481.863 318.782 484.389 333.953C486.915 349.123 490.283 379.465 490.283 379.465C490.283 379.465 501.65 380.729 502.492 378.622C502.492 378.622 503.334 357.552 504.176 356.709C505.018 355.866 503.755 336.481 502.492 332.688C501.229 328.896 514.28 291.39 514.28 291.39L510.912 244.614L496.598 256.835Z" fill="#2F2E41"/>
<path opacity="0.1" d="M496.598 256.835C496.598 256.835 484.389 284.226 486.073 309.089C486.073 309.089 481.863 318.782 484.389 333.953C486.915 349.123 490.283 379.465 490.283 379.465C490.283 379.465 501.65 380.729 502.492 378.622C502.492 378.622 503.334 357.552 504.176 356.709C505.018 355.866 503.755 336.481 502.492 332.688C501.229 328.896 514.28 291.39 514.28 291.39L510.912 244.614L496.598 256.835Z" fill="black"/>
<path d="M493.23 255.149L501.229 272.427C501.229 272.427 505.018 311.618 507.123 316.675C507.123 316.675 507.965 331.003 511.754 335.638C515.543 340.274 518.49 381.15 518.49 381.15C518.49 381.15 529.015 384.1 529.857 381.15C530.699 378.201 533.225 357.973 533.225 357.973C533.225 357.973 534.067 340.695 529.436 329.317C524.805 317.939 534.909 277.062 534.909 277.062C534.909 277.062 545.434 257.256 530.278 241.242L493.23 255.149Z" fill="#2F2E41"/>
<path d="M515.543 162.017C525.076 162.017 532.804 154.282 532.804 144.74C532.804 135.197 525.076 127.462 515.543 127.462C506.01 127.462 498.282 135.197 498.282 144.74C498.282 154.282 506.01 162.017 515.543 162.017Z" fill="#FFB9B9"/>
<path d="M531.541 170.867C531.541 170.867 513.438 170.867 510.912 172.974C510.287 173.569 509.458 173.901 508.596 173.901C507.734 173.901 506.905 173.569 506.281 172.974C506.281 172.974 499.966 173.395 498.282 178.452C496.598 183.509 491.546 190.252 491.546 190.252C491.546 190.252 483.968 195.73 488.178 210.058C492.388 224.386 489.02 247.564 489.02 247.564C489.02 247.564 485.652 252.62 489.02 254.728C492.388 256.835 493.651 257.677 493.23 259.363C492.809 261.049 531.541 245.456 531.541 242.507C531.541 239.557 530.699 237.028 531.541 235.764C532.383 234.5 533.225 232.393 532.383 230.286C531.541 228.179 533.225 227.757 532.804 225.65C532.383 223.543 534.909 207.951 536.593 201.208C538.277 194.466 537.856 171.288 531.541 170.867Z" fill="#D0CDE1"/>
<path d="M467.77 212.169C467.77 212.169 451.13 199.523 449.867 204.158C448.604 208.794 462.076 219.329 462.076 219.329L467.77 212.169Z" fill="#FFB9B9"/>
<path d="M522.7 172.974C522.7 172.974 502.913 208.372 502.492 213.429C502.071 218.486 502.071 218.908 500.387 218.486C498.703 218.065 475.548 215.536 473.443 216.379C471.338 217.222 467.128 211.322 467.128 211.322C467.128 211.322 459.129 219.329 460.813 221.015C462.497 222.7 467.549 223.543 468.391 225.65C469.233 227.757 470.496 229.864 474.285 229.443C478.074 229.022 503.755 236.186 507.123 234.921C510.491 233.657 511.333 231.55 513.017 231.55C514.701 231.55 518.069 229.864 518.069 229.443C518.069 229.022 529.857 206.687 529.857 206.687C529.857 206.687 543.75 176.345 522.7 172.974Z" fill="#D0CDE1"/>
<path d="M506.996 155.778C506.756 154.067 505.881 152.515 505.432 150.846C505.08 149.511 505.002 148.118 505.202 146.752C505.402 145.386 505.877 144.074 506.596 142.896C509.072 138.894 513.933 137.121 517.323 133.858C517.393 135.52 518.545 136.94 519.819 138.009C521.093 139.078 522.553 139.946 523.632 141.212C524.668 142.547 525.423 144.079 525.853 145.714C526.517 147.609 526.814 149.614 526.73 151.62C526.681 152.623 526.43 153.605 525.99 154.507C525.55 155.409 524.932 156.213 524.173 156.869C522.91 157.867 521.146 158.438 520.536 159.929C520.296 160.674 520.227 161.463 520.333 162.239C520.622 166.875 520.892 171.594 519.802 176.109C518.711 180.624 516.039 184.987 511.851 186.988C515.292 187.233 518.807 187.471 522.146 186.601C525.485 185.732 528.678 183.542 529.829 180.286C530.397 178.68 530.451 176.894 531.258 175.394C533.3 171.597 538.94 171.424 541.71 168.122C542.819 166.8 543.355 165.097 543.752 163.418C546.091 153.538 544.448 143.046 540.887 133.538C539.66 130.261 538.132 126.961 535.499 124.658C533.259 122.698 530.398 121.618 527.569 120.695C523.44 119.349 519.187 118.247 514.847 118.105C512.962 117.994 511.072 118.215 509.262 118.757C507.477 119.403 505.815 120.351 504.349 121.559C497.55 126.854 492.922 135.317 493.536 143.917C493.908 149.121 496.11 154.046 498.94 158.427C499.93 159.96 502.268 163.227 504.442 162.264C506.413 161.39 507.254 157.626 506.996 155.778Z" fill="#2F2E41"/>
<path d="M237.037 214.924H258.655V193.285H237.037V214.924ZM345.558 193.285H323.94V214.924H345.558V193.285ZM280.489 214.924H302.107V193.285H280.489V214.924Z" fill="#E45151"/>
<path d="M111.442 128.8C121.488 128.8 129.632 122.442 129.632 114.598C129.632 106.755 121.488 100.397 111.442 100.397C101.396 100.397 93.2526 106.755 93.2526 114.598C93.2526 122.442 101.396 128.8 111.442 128.8Z" fill="#2F2E41"/>
<path d="M114.534 212.372C114.534 212.372 130.905 213.464 133.815 211.279C136.726 209.095 149.095 214.193 150.186 217.106C151.277 220.019 132.724 220.383 129.814 220.383C126.903 220.383 113.079 224.753 113.079 224.753L114.534 212.372Z" fill="#A0616A"/>
<path d="M80.8242 382C80.8242 382 73.1948 401.258 77.1754 403.582C81.1559 405.906 122.952 404.246 122.952 404.246C122.952 404.246 129.918 399.93 121.957 396.941C121.957 396.941 115.322 396.609 111.01 393.953C106.698 391.297 101.722 386.316 101.722 386.316C101.722 386.316 101.39 379.011 98.7367 380.671C97.9427 381.195 97.267 381.879 96.7528 382.68C96.2387 383.48 95.8975 384.38 95.7513 385.32L80.8242 382Z" fill="#2F2E41"/>
<path opacity="0.1" d="M80.8242 382C80.8242 382 73.1948 401.258 77.1754 403.582C81.1559 405.906 122.952 404.246 122.952 404.246C122.952 404.246 129.918 399.93 121.957 396.941C121.957 396.941 115.322 396.609 111.01 393.953C106.698 391.297 101.722 386.316 101.722 386.316C101.722 386.316 101.39 379.011 98.7367 380.671C97.9427 381.195 97.267 381.879 96.7528 382.68C96.2387 383.48 95.8975 384.38 95.7513 385.32L80.8242 382Z" fill="black"/>
<path d="M207.746 263.665L154.512 210.596L207.692 157.527L191.478 141.352L122.14 210.596L191.532 279.84L207.746 263.665Z" fill="#E45151"/>
<path d="M69.0604 387.891C69.0604 387.891 60.6932 409.012 65.0587 411.561C69.4242 414.11 115.262 412.289 115.262 412.289C115.262 412.289 122.902 407.555 114.171 404.278C114.171 404.278 106.895 403.914 102.165 401C97.4362 398.087 91.9793 392.625 91.9793 392.625C91.9793 392.625 91.6155 384.614 88.7052 386.434C87.8344 387.009 87.0933 387.759 86.5295 388.637C85.9656 389.515 85.5915 390.501 85.4311 391.532L69.0604 387.891Z" fill="#2F2E41"/>
<path d="M111.988 253.885L106.895 299.767C106.895 299.767 105.076 321.616 99.6189 326.35C99.6189 326.35 99.6189 333.269 97.8 335.454L95.2534 364.221C95.2534 364.221 98.8913 374.782 98.5275 376.602C98.1637 378.423 99.9827 384.25 99.6189 384.978C99.2551 385.706 82.1569 384.978 82.1569 384.978L85.7948 326.35L97.0724 244.781L111.988 253.885Z" fill="#2F2E41"/>
<path opacity="0.1" d="M111.988 253.885L106.895 299.767C106.895 299.767 105.076 321.616 99.6189 326.35C99.6189 326.35 99.6189 333.269 97.8 335.454L95.2534 364.221C95.2534 364.221 98.8913 374.782 98.5275 376.602C98.1637 378.423 99.9827 384.25 99.6189 384.978C99.2551 385.706 82.1569 384.978 82.1569 384.978L85.7948 326.35L97.0724 244.781L111.988 253.885Z" fill="black"/>
<path d="M102.893 252.428C102.893 252.428 98.8914 289.935 97.0724 297.947C95.9288 303.222 95.199 308.579 94.8897 313.969C94.8897 313.969 94.5259 325.622 91.2518 328.899C90.2938 329.849 89.5411 330.985 89.0405 332.238C88.5398 333.491 88.3019 334.833 88.3414 336.182C88.3414 336.182 85.0673 372.961 86.8863 377.331C88.7052 381.7 90.5242 385.342 88.7052 388.255C86.8863 391.168 66.8777 391.168 66.8777 388.983C66.8777 386.799 66.8777 384.978 65.7864 383.885C64.695 382.793 65.7864 375.874 65.7864 375.874C65.7864 375.874 61.4209 343.465 65.4226 333.997C69.4243 324.529 71.2432 298.675 71.2432 298.675C71.2432 298.675 68.3329 269.179 64.695 264.445C61.0571 259.711 65.4226 242.96 65.4226 242.96L102.893 252.428Z" fill="#2F2E41"/>
<path d="M92.6509 135.952C93.0738 136.917 94.0861 137.454 95.0077 137.962C100.349 140.907 104.82 145.178 109.225 149.399C108.125 145.67 108.36 141.675 109.887 138.101C110.413 136.882 111.102 135.572 110.726 134.298C110.45 133.362 109.653 132.686 108.881 132.089C107.084 130.697 105.205 129.414 103.256 128.247C101.893 127.431 99.0929 125.259 97.5298 125.496C97.4477 127.61 97.4048 129.5 96.48 131.476C96.2606 131.944 92.8126 136.321 92.6509 135.952Z" fill="#A0616A"/>
<path d="M111.26 140.635C119.498 140.635 126.176 133.95 126.176 125.705C126.176 117.459 119.498 110.775 111.26 110.775C103.023 110.775 96.3448 117.459 96.3448 125.705C96.3448 133.95 103.023 140.635 111.26 140.635Z" fill="#A0616A"/>
<path d="M111.988 161.027C111.988 161.027 114.534 148.282 107.259 143.912C99.9827 139.542 91.6155 134.444 91.6155 134.444C91.6155 134.444 89.0689 134.08 87.9776 139.542C87.9776 139.542 67.2415 143.548 65.0587 163.212C62.876 182.876 66.5139 211.644 66.5139 211.644C66.5139 211.644 63.2398 236.77 59.2381 250.243C59.2381 250.243 55.964 253.156 70.5156 248.787C85.0673 244.417 110.533 261.168 110.533 261.168C110.533 261.168 113.079 258.619 113.079 256.798C113.079 254.977 115.99 244.417 115.99 244.417C115.99 244.417 118.536 199.627 119.627 194.529C120.719 189.431 115.262 161.755 111.988 161.027Z" fill="#575A89"/>
<path d="M107.745 127.243C108.641 126.746 109.646 126.478 110.67 126.463C111.696 126.448 112.697 126.149 113.564 125.6C114.973 124.517 115.076 122.425 116.107 120.977C117.599 118.88 120.576 118.628 123.146 118.733C124.717 118.797 126.41 118.891 127.733 118.04C129.092 117.167 129.708 115.521 130.166 113.971C130.707 112.138 131.058 109.897 129.715 108.537C128.783 107.594 127.312 107.407 126.276 106.578C125.203 105.718 124.761 104.319 124.177 103.073C123.513 101.555 122.462 100.238 121.13 99.2535C119.177 97.8948 116.682 97.5902 114.303 97.6156C111.924 97.6411 109.536 97.9542 107.175 97.662C105.241 97.4226 103.312 96.7786 101.384 97.064C98.9276 97.4278 96.8951 99.283 95.6846 101.454C94.4741 103.624 93.9546 106.102 93.451 108.536L92.0811 115.156C91.6563 117.21 91.2297 119.318 91.5576 121.389C92.2375 125.682 96.0308 129.095 96.2922 133.434C96.5413 132.236 97.0837 131.119 97.8706 130.182C98.6576 129.245 99.6645 128.519 100.801 128.067C101.086 127.928 101.41 127.889 101.72 127.956C102.097 128.077 102.317 128.453 102.555 128.77C103.178 129.599 105.135 130.857 106.245 130.269C107.238 129.743 106.497 128.09 107.745 127.243Z" fill="#2F2E41"/>
<path d="M70.1518 195.257C70.1518 195.257 67.6053 211.28 78.1552 209.823C78.1552 209.823 83.6121 209.095 84.3397 209.823C85.0673 210.551 111.988 205.817 115.626 201.812C115.626 201.812 119.991 200.355 122.174 202.54C124.357 204.725 146.184 206.91 139.636 200.355C133.088 193.8 122.902 192.344 122.902 192.344L109.078 193.072C109.078 193.072 101.802 195.257 97.4362 193.072C93.0707 190.887 80.7018 191.616 80.7018 191.616L70.1518 195.257Z" fill="#A0616A"/>
<path d="M85.0672 144.641C85.0672 144.641 68.6966 146.461 68.6966 170.131V200.355C68.6966 200.355 77.7914 196.349 79.6104 196.714C81.4293 197.078 88.7052 191.98 88.7052 191.98C88.7052 191.98 97.0724 172.316 96.3448 166.854C95.6172 161.391 95.981 145.369 85.0672 144.641Z" fill="#575A89"/>
<path d="M111.26 123.702C118.996 123.702 125.266 120.441 125.266 116.419C125.266 112.397 118.996 109.136 111.26 109.136C103.525 109.136 97.2543 112.397 97.2543 116.419C97.2543 120.441 103.525 123.702 111.26 123.702Z" fill="#2F2E41"/>
<path d="M98.1637 129.893C100.876 129.893 103.075 124.431 103.075 117.694C103.075 110.956 100.876 105.495 98.1637 105.495C95.4514 105.495 93.2526 110.956 93.2526 117.694C93.2526 124.431 95.4514 129.893 98.1637 129.893Z" fill="#2F2E41"/>
</g>
<defs>
<clipPath id="clip0">
<rect width="588" height="447" fill="white"/>
</clipPath>
</defs>
</svg>
